<svg width="10" height="9" viewBox="0 0 10 9" fill="none" xmlns="http://www.w3.org/2000/svg">
<g id="Star 10">
<path id="Star 1" d="M4.86083 0.173834C4.89798 0.10127 5.00169 0.10127 5.03885 0.173834L6.26525 2.56898C6.27978 2.59735 6.30696 2.61709 6.33842 2.62214L8.99532 3.04838C9.07582 3.06129 9.10786 3.15993 9.05033 3.21769L7.1514 5.12421C7.12891 5.14679 7.11853 5.17874 7.12345 5.21023L7.53909 7.8688C7.55169 7.94935 7.46778 8.01031 7.39507 7.97344L4.99506 6.75659C4.96663 6.74218 4.93304 6.74218 4.90462 6.75659L2.5046 7.97344C2.43189 8.01031 2.34799 7.94935 2.36058 7.8688L2.77623 5.21023C2.78115 5.17874 2.77077 5.14679 2.74828 5.12421L0.849342 3.21769C0.791811 3.15993 0.823858 3.06129 0.904353 3.04838L3.56125 2.62214C3.59272 2.61709 3.61989 2.59735 3.63442 2.56898L4.86083 0.173834Z" fill="#C4C4C4"/>
</g>
</svg>
