<svg width="10" height="9" viewBox="0 0 10 9" fill="none" xmlns="http://www.w3.org/2000/svg">
<g id="Star 6">
<path id="Star 1" d="M4.61742 0.173834C4.65457 0.10127 4.75828 0.10127 4.79544 0.173834L6.02185 2.56898C6.03637 2.59735 6.06355 2.61709 6.09502 2.62214L8.75191 3.04838C8.83241 3.06129 8.86446 3.15993 8.80692 3.21769L6.90799 5.12421C6.8855 5.14679 6.87512 5.17874 6.88004 5.21023L7.29569 7.8688C7.30828 7.94935 7.22438 8.01031 7.15166 7.97344L4.75165 6.75659C4.72323 6.74218 4.68963 6.74218 4.66121 6.75659L2.26119 7.97344C2.18848 8.01031 2.10458 7.94935 2.11717 7.8688L2.53282 5.21023C2.53774 5.17874 2.52736 5.14679 2.50487 5.12421L0.605934 3.21769C0.548402 3.15993 0.58045 3.06129 0.660945 3.04838L3.31784 2.62214C3.34931 2.61709 3.37649 2.59735 3.39101 2.56898L4.61742 0.173834Z" fill="#E9A426"/>
</g>
</svg>
