<svg width="28" height="28" viewBox="0 0 28 28" fill="none" xmlns="http://www.w3.org/2000/svg">
<g id="jam:shopping-cart">
<path id="Vector" d="M15.877 23.2138C16.4785 23.2138 17.0555 22.9748 17.4808 22.5494C17.9062 22.1241 18.1451 21.5472 18.1451 20.9456C18.1451 20.3441 17.9062 19.7672 17.4808 19.3418C17.0555 18.9164 16.4785 18.6775 15.877 18.6775C15.2754 18.6775 14.6985 18.9164 14.2732 19.3418C13.8478 19.7672 13.6089 20.3441 13.6089 20.9456C13.6089 21.5472 13.8478 22.1241 14.2732 22.5494C14.6985 22.9748 15.2754 23.2138 15.877 23.2138ZM7.93849 23.2138C8.54004 23.2138 9.11695 22.9748 9.54231 22.5494C9.96767 22.1241 10.2066 21.5472 10.2066 20.9456C10.2066 20.3441 9.96767 19.7672 9.54231 19.3418C9.11695 18.9164 8.54004 18.6775 7.93849 18.6775C7.33694 18.6775 6.76003 18.9164 6.33467 19.3418C5.90931 19.7672 5.67035 20.3441 5.67035 20.9456C5.67035 21.5472 5.90931 22.1241 6.33467 22.5494C6.76003 22.9748 7.33694 23.2138 7.93849 23.2138ZM22.7245 7.24942C23.0076 7.24029 23.2761 7.12141 23.4731 6.91792C23.6702 6.71442 23.7803 6.44227 23.7803 6.15901C23.7803 5.87576 23.6702 5.60361 23.4731 5.40011C23.2761 5.19662 23.0076 5.07773 22.7245 5.0686H21.4192C20.3963 5.0686 19.5117 5.77853 19.2894 6.77652L17.8684 13.175C17.6462 14.1729 16.7616 14.8829 15.7386 14.8829H7.21949L5.58416 8.33927H16.1821C16.4625 8.32647 16.7272 8.20606 16.9212 8.00307C17.1151 7.80009 17.2233 7.53016 17.2233 7.24942C17.2233 6.96869 17.1151 6.69876 16.9212 6.49577C16.7272 6.29279 16.4625 6.17238 16.1821 6.15958H5.58416C5.25263 6.15948 4.92544 6.23497 4.62747 6.38031C4.32949 6.52565 4.06858 6.73701 3.86456 6.99832C3.66054 7.25964 3.51878 7.56403 3.45006 7.88836C3.38134 8.21268 3.38747 8.54841 3.46798 8.87001L5.10331 15.4113C5.2212 15.8833 5.49353 16.3024 5.87698 16.6018C6.26044 16.9012 6.73299 17.0638 7.21949 17.0637H15.7386C16.7312 17.0638 17.6941 16.7254 18.4683 16.1044C19.2426 15.4833 19.7819 14.6168 19.9971 13.6479L21.4192 7.24942H22.7245Z" fill="white"/>
</g>
</svg>
