<svg width="61" height="22" viewBox="0 0 61 22" fill="none" xmlns="http://www.w3.org/2000/svg">
<g id="primary 1" clip-path="url(#clip0_212_6911)">
<g id="Logo/medium/primary zip">
<g id="Logo/item/zip/no divider">
<g id="Asset 1">
<g id="Logo/icon/colour primary">
<path id="Shape" d="M21.6148 8.36418L16.7322 12.5733H4.63956C3.51162 12.5718 2.42209 12.9659 1.57642 13.6812L7.67546 8.42207L7.76904 8.34262L15.4103 1.74862C16.6424 0.686493 18.3722 0.334972 19.9481 0.826465C21.524 1.31796 22.7066 2.5778 23.0503 4.13141C23.3941 5.68503 22.8469 7.29638 21.6148 8.35851V8.36418Z" fill="#F15B41"/>
<path id="Oval" d="M4.63973 9.50715C7.20218 9.50715 9.27946 7.51646 9.27946 5.06083C9.27946 2.60519 7.20218 0.614502 4.63973 0.614502C2.07728 0.614502 0 2.60519 0 5.06083C0 7.51646 2.07728 9.50715 4.63973 9.50715Z" fill="#F99D1D"/>
<path id="Shape_2" d="M4.63966 12.5732C3.51171 12.5718 2.42218 12.9659 1.57651 13.6811L1.53742 13.7152C-0.367572 15.3571 -0.522957 18.168 1.19036 19.9936C2.90368 21.8192 5.8369 21.9681 7.74189 20.3262L16.7335 12.5744L4.63966 12.5732Z" fill="#272560"/>
<path id="Shape_3" d="M16.7261 12.5766L7.7335 20.3284C6.882 21.0622 5.77647 21.4667 4.63135 21.4636L18.5052 21.4635C21.1812 21.4226 23.0706 19.4932 23.0706 17.0178C23.0706 14.5424 21.0383 12.6108 18.5052 12.572L16.7261 12.5766Z" fill="#00B6BD"/>
</g>
<g id="Logo/item/zip/text/primary">
<path id="Shape_4" d="M29.7969 17.7467C29.4107 17.7604 29.037 17.6143 28.7715 17.346C28.5115 17.0751 28.3729 16.7178 28.3853 16.3505C28.3817 15.9806 28.4774 15.6159 28.6633 15.2914C28.8267 15.0012 29.0262 14.731 29.2575 14.4866L34.998 8.28648H29.9942C29.5094 8.28648 29.1624 8.12757 28.9723 7.812C28.7872 7.49499 28.6948 7.13622 28.7049 6.77335C28.6916 6.42363 28.797 6.07917 29.0056 5.79146C29.2123 5.51918 29.5486 5.36469 29.9003 5.38054H38.741C39.1148 5.36409 39.4794 5.49453 39.7499 5.74151C40.0006 5.98102 40.1278 6.32157 40.1278 6.75292C40.1383 7.08881 40.065 7.42228 39.9139 7.72573C39.7688 7.99011 39.5869 8.23449 39.3732 8.45221L33.395 14.8396H39.0595C39.4003 14.8315 39.7247 14.9791 39.9329 15.2369C40.1547 15.5252 40.2667 15.8773 40.2501 16.2347C40.2663 16.6071 40.1729 16.9764 39.9804 17.3006C39.7867 17.5969 39.4433 17.7478 38.9609 17.7478L29.7969 17.7467Z" fill="#272560"/>
<path id="Shape_5" d="M43.6843 17.9101C42.1111 17.9101 41.7831 17.1382 41.7831 16.4912V7.04688C41.7831 6.55309 41.9388 6.15352 42.2477 5.85952C42.5567 5.56552 43.0486 5.41569 43.7117 5.41569C44.2701 5.41569 44.7122 5.53715 45.0271 5.77779C45.342 6.01844 45.5166 6.40666 45.5166 6.90612V16.4413C45.5166 16.96 45.3455 17.3414 45.0081 17.5764C44.6706 17.8114 44.2369 17.9101 43.6843 17.9101ZM43.6843 4.40201C43.0712 4.40201 42.5685 4.2306 42.1883 3.89233C41.808 3.55406 41.6096 3.08752 41.6096 2.51428C41.595 2.00608 41.804 1.51529 42.1859 1.1612C42.5626 0.808172 43.0676 0.627686 43.6843 0.627686C44.1929 0.628745 44.6872 0.788149 45.0924 1.08174C45.5345 1.39277 45.759 1.87633 45.759 2.51882C45.759 3.09206 45.5642 3.55633 45.1804 3.89801C44.7965 4.23969 44.2939 4.40542 43.6843 4.40542V4.40201Z" fill="#272560"/>
<path id="Shape_6" d="M49.6185 21.5292C48.1474 21.5292 47.8361 20.7448 47.8361 20.0864V6.72687C47.8234 6.30843 47.9919 5.90351 48.3019 5.60762C48.6097 5.31361 49.1028 5.16377 49.7659 5.16377C50.1783 5.15977 50.5857 5.25007 50.9541 5.42713C51.3451 5.61897 51.5483 5.9947 51.5483 6.5339C51.6275 6.44687 51.7126 6.35757 51.8037 6.266C52.0535 6.02383 52.3327 5.81117 52.6355 5.63259C53.3715 5.19376 54.2242 4.96676 55.0917 4.97875C55.923 4.96332 56.7465 5.13357 57.4967 5.47594C58.1833 5.7997 58.7811 6.27241 59.2423 6.85628C59.7229 7.48078 60.0739 8.18747 60.2761 8.93814C60.5074 9.78636 60.6209 10.66 60.6136 11.5365C60.6221 12.4293 60.4915 13.3184 60.2262 14.1746C59.9918 14.9351 59.6069 15.6456 59.0926 16.2678C58.597 16.854 57.9689 17.3255 57.2555 17.647C56.4792 17.987 55.6331 18.1565 54.7792 18.143C54.2074 18.1587 53.6369 18.082 53.0918 17.916C52.7004 17.7892 52.3284 17.6133 51.9856 17.3927C51.7997 17.2722 51.6284 17.1325 51.4746 16.9761V20.0183C51.4746 20.5473 51.3237 20.9378 51.0254 21.1784C50.7272 21.4191 50.2685 21.5292 49.6185 21.5292ZM54.1411 8.00505C53.7362 7.99569 53.3356 8.08599 52.9778 8.26727C52.641 8.44966 52.3525 8.70321 52.1341 9.00852C51.8887 9.35394 51.7097 9.73832 51.6053 10.1437C51.4823 10.6147 51.422 11.0987 51.4259 11.5842C51.4259 12.6898 51.6635 13.5763 52.1388 14.22C52.6141 14.8636 53.2594 15.1644 54.1458 15.1644C55.0323 15.1644 55.6775 14.842 56.1255 14.178C56.5735 13.5139 56.8123 12.6296 56.8123 11.5842C56.8138 11.1 56.7515 10.6175 56.6269 10.1482C56.5225 9.7446 56.3474 9.3608 56.1088 9.01306C55.8967 8.70733 55.6116 8.45406 55.2771 8.27408C54.9289 8.09264 54.5376 7.99998 54.1411 8.00505Z" fill="#272560"/>
</g>
</g>
</g>
</g>
</g>
<defs>
<clipPath id="clip0_212_6911">
<rect width="61" height="21" fill="white" transform="translate(0 0.5)"/>
</clipPath>
</defs>
</svg>
