<svg width="30" height="31" viewBox="0 0 30 31" fill="none" xmlns="http://www.w3.org/2000/svg">
<g id="ri:account-pin-circle-fill" clip-path="url(#clip0_1916_3910)">
<path id="Vector" d="M17.82 28.1166L15 30.9366L12.18 28.1166C6.6375 26.8366 2.5 21.8666 2.5 15.9366C2.5 9.03665 8.1 3.43665 15 3.43665C21.9 3.43665 27.5 9.03665 27.5 15.9366C27.5 21.8666 23.3625 26.8366 17.82 28.1166ZM7.52875 20.2066C9.36375 22.9441 12.1187 24.6866 15.2 24.6866C18.28 24.6866 21.0362 22.9454 22.87 20.2066C20.7897 18.2624 18.0474 17.1827 15.2 17.1866C12.3521 17.1823 9.60939 18.2621 7.52875 20.2066ZM15 14.6866C15.9946 14.6866 16.9484 14.2916 17.6517 13.5883C18.3549 12.885 18.75 11.9312 18.75 10.9366C18.75 9.94208 18.3549 8.98826 17.6517 8.285C16.9484 7.58173 15.9946 7.18665 15 7.18665C14.0054 7.18665 13.0516 7.58173 12.3483 8.285C11.6451 8.98826 11.25 9.94208 11.25 10.9366C11.25 11.9312 11.6451 12.885 12.3483 13.5883C13.0516 14.2916 14.0054 14.6866 15 14.6866Z" fill="white"/>
</g>
<defs>
<clipPath id="clip0_1916_3910">
<rect width="30" height="30" fill="white" transform="translate(0 0.936646)"/>
</clipPath>
</defs>
</svg>
