<svg width="26" height="27" viewBox="0 0 26 27" fill="none" xmlns="http://www.w3.org/2000/svg">
<g id="entypo:price-tag" clip-path="url(#clip0_1916_3933)">
<path id="Vector" d="M25.2047 1.46317C25.1293 1.27534 24.9844 1.12381 24.8001 1.04011C24.6158 0.956418 24.4063 0.946997 24.2152 1.01381C24.0242 1.08063 23.8662 1.21853 23.7742 1.39884C23.6823 1.57914 23.6633 1.78797 23.7214 1.98187C24.9291 5.45287 22.5319 8.04507 20.7041 9.43347L19.9657 8.37527C19.7174 8.02037 19.1623 7.72527 18.7307 7.72007L14.5863 7.73827C14.08 7.75356 13.5873 7.90538 13.1602 8.17767L0.948006 16.7408C0.663949 16.9407 0.470671 17.245 0.410489 17.5871C0.350307 17.9291 0.428126 18.2811 0.626906 18.566L6.17661 26.5064C6.59261 27.0979 7.25691 27.0264 7.84971 26.613L20.0619 18.0486C20.4129 17.8003 20.8185 17.2647 20.9615 16.8552L22.2589 12.7667C22.4019 12.3585 22.3148 11.7358 22.0665 11.3809L21.6167 10.7361C24.0711 8.85497 26.6191 5.53087 25.2047 1.46317ZM19.5224 13.6286C19.2974 13.7861 19.0436 13.8977 18.7755 13.957C18.5074 14.0164 18.2302 14.0223 17.9597 13.9745C17.6893 13.9267 17.431 13.8261 17.1994 13.6784C16.9679 13.5307 16.7678 13.3388 16.6104 13.1138C16.2918 12.6583 16.1669 12.0951 16.2632 11.5477C16.3595 11.0002 16.669 10.5134 17.1239 10.194C17.4805 9.94413 17.9063 9.81195 18.3416 9.81592C18.777 9.81988 19.2003 9.95978 19.5523 10.2161C19.1987 10.4293 18.9556 10.5541 18.9101 10.5736C18.749 10.6504 18.6187 10.7797 18.5406 10.9403C18.4626 11.1008 18.4414 11.2831 18.4805 11.4573C18.5196 11.6315 18.6168 11.7873 18.756 11.899C18.8952 12.0108 19.0683 12.0719 19.2468 12.0725C19.3586 12.0725 19.473 12.0465 19.5809 11.9958C19.8331 11.8762 20.1035 11.7345 20.3856 11.5668C20.4505 11.9568 20.4039 12.3573 20.2512 12.7221C20.0985 13.0869 19.8459 13.4011 19.5224 13.6286Z" fill="white"/>
</g>
<defs>
<clipPath id="clip0_1916_3933">
<rect width="26" height="26" fill="white" transform="translate(0 0.936646)"/>
</clipPath>
</defs>
</svg>
