<svg width="30" height="31" viewBox="0 0 30 31" fill="none" xmlns="http://www.w3.org/2000/svg">
<g id="bx:bx-support">
<path id="Vector" d="M14.9121 2.86084C8.10683 2.86084 2.57031 8.39736 2.57031 15.2026V20.3158C2.57031 21.5796 3.67737 22.6077 5.03867 22.6077H6.27284C6.60017 22.6077 6.91409 22.4776 7.14554 22.2462C7.37699 22.0147 7.50702 21.7008 7.50702 21.3735V15.0261C7.50702 14.6988 7.37699 14.3849 7.14554 14.1534C6.91409 13.922 6.60017 13.7919 6.27284 13.7919H5.15221C5.83841 9.01568 9.94823 5.32919 14.9121 5.32919C19.8759 5.32919 23.9858 9.01568 24.672 13.7919H23.5513C23.224 13.7919 22.9101 13.922 22.6786 14.1534C22.4472 14.3849 22.3172 14.6988 22.3172 15.0261V22.6077C22.3172 23.969 21.2101 25.076 19.8488 25.076H17.3804V23.8419H12.4437V27.5444H19.8488C22.5714 27.5444 24.7855 25.3303 24.7855 22.6077C26.1468 22.6077 27.2539 21.5796 27.2539 20.3158V15.2026C27.2539 8.39736 21.7173 2.86084 14.9121 2.86084Z" fill="white"/>
</g>
</svg>
